# xmcd
#
# Track frame offsets: 
#        150
#        16206
#        29856
#        43966
#        62521
#        84095
#        102041
#        117168
#        134304
#        147744
#        160374
#        176184
#        187812
#        200072
#        214792
#        231264
#        247055
#        262726
#        280759
#        298309
#        311335
#        327738
#
# Disc length: 4580 seconds
#
# Revision: 0
# Processed by: cddbd v1.5.2PL0 Copyright (c) Steve Scherf et al.
# Submitted via: ExactAudioCopyFreeDBPlugin 1.0
#
DISCID=5211e216
DTITLE=Corry Konings - Favorieten Express
DYEAR=2012
DGENRE=levenslied
TTITLE0=Vaarwel, ik zal geen traan meer om je laten  (1969)
TTITLE1=Mijn stil verdriet  (1969)
TTITLE2=Huilen is voor jou te laat  (1970)
TTITLE3=Rozen die bloeien  (1971)
TTITLE4=Zonder 't te weten  (1971)
TTITLE5=Hoog daar aan de hemel  (1972)
TTITLE6=Igorowitschj  (1971)
TTITLE7=Jij hebt me bedrogen  (1972)
TTITLE8=Jij weet toch wel wat liefde is  (1973)
TTITLE9=Ik wil niet trouwen met jou  (1975)
TTITLE10=Ik krijg een heel apart gevoel van binnen  (1976)
TTITLE11=Het is voorbij  (1976)
TTITLE12=Je moedertje  (1977)
TTITLE13=Met jou te leven  (1977)
TTITLE14=Hoe je heette ben ik vergeten  (1979)
TTITLE15=Adios amor  (1982)
TTITLE16=Het is allemaal gelogen  (1982)
TTITLE17=Waarom mocht dit niet lang duren  (1983)
TTITLE18=Jij bent voor mij de man  (1983)
TTITLE19=Elke nacht ben ik eenzaam  (1985)
TTITLE20=Alle vrouwen van de wereld  (1986)
TTITLE21=Frans Bauer and Corry Konings - Diep in mijn hart  (1999)
EXTD=
EXTT0=
EXTT1=
EXTT2=
EXTT3=
EXTT4=
EXTT5=
EXTT6=
EXTT7=
EXTT8=
EXTT9=
EXTT10=
EXTT11=
EXTT12=
EXTT13=
EXTT14=
EXTT15=
EXTT16=
EXTT17=
EXTT18=
EXTT19=
EXTT20=
EXTT21=
PLAYORDER=
